<svg width="1024" height="1024" viewBox="0 0 1024 1024" fill="none" xmlns="http://www.w3.org/2000/svg">
<path d="M511.998 1023.99C229.229 1023.99 0 794.765 0 511.997C0 229.229 229.229 0 511.998 0C794.767 0 1024 229.229 1024 511.997C1024 794.765 794.767 1023.99 511.998 1023.99Z" fill="#121D3F"/>
<path d="M512 943C273.965 943 81.0001 750.035 81.0001 512C81.0001 273.965 273.965 81 512 81C750.035 81 943 273.965 943 512C943 750.035 750.035 943 512 943Z" fill="#84B4E1"/>
<path d="M512 847C326.985 847 177 697.015 177 512C177 326.985 326.985 177 512 177C697.015 177 847 326.985 847 512C847 697.015 697.015 847 512 847Z" fill="#121D3F"/>
</svg>
